<svg viewBox="0 0 1440 800" fill="none" xmlns="http://www.w3.org/2000/svg">
<path fill-rule="evenodd" clip-rule="evenodd" d="M835.326 0L425.852 0L-4.61452e-05 375.531V532.165L835.326 0Z" fill="url(#paint0_linear_48_14)"/>
<path fill-rule="evenodd" clip-rule="evenodd" d="M1057.94 800L416.4 799.862L-2.901e-05 494.083V366.542L1057.94 800Z" fill="url(#paint1_linear_48_14)"/>
<ellipse cx="704.429" cy="562.297" rx="49.0299" ry="48.9388" stroke="url(#paint2_linear_48_14)" stroke-width="17"/>
<rect opacity="0.558175" width="37.9879" height="37.9879" rx="3" transform="matrix(0.707764 0.706449 -0.707764 0.706449 1108.55 681.149)" fill="url(#paint3_linear_48_14)"/>
<rect opacity="0.503418" width="55.9821" height="55.9821" rx="3" transform="matrix(0.707764 0.706449 -0.707764 0.706449 1280.38 63.9201)" fill="url(#paint4_linear_48_14)"/>
<rect opacity="0.558175" width="31.9898" height="31.9898" rx="3" transform="matrix(0.707764 0.706449 -0.707764 0.706449 935.197 40.9488)" fill="url(#paint5_linear_48_14)"/>
<rect opacity="0.558175" width="31.9898" height="31.9898" rx="3" transform="matrix(0.707764 0.706449 -0.707764 0.706449 704.056 163.795)" fill="url(#paint6_linear_48_14)"/>
<path opacity="0.210542" fill-rule="evenodd" clip-rule="evenodd" d="M115.285 731.895C117.239 729.944 117.239 726.782 115.285 724.832C113.331 722.882 110.164 722.882 108.21 724.832L96.5354 736.485L84.8611 724.832C82.9073 722.882 79.7395 722.882 77.7857 724.832C75.8319 726.782 75.8319 729.944 77.7857 731.895L89.46 743.547L77.7857 755.2C75.8319 757.15 75.8319 760.312 77.7857 762.262C79.7395 764.212 82.9073 764.212 84.8611 762.262L96.5354 750.609L108.21 762.262C110.164 764.212 113.331 764.212 115.285 762.262C117.239 760.312 117.239 757.15 115.285 755.2L103.611 743.547L115.285 731.895Z" fill="url(#paint7_linear_48_14)"/>
<rect opacity="0.386928" width="16.9946" height="16.9946" rx="1" transform="matrix(0.707764 0.706449 -0.707764 0.706449 1237.77 593.258)" fill="url(#paint8_linear_48_14)"/>
<defs>
<linearGradient id="paint0_linear_48_14" x1="1998.84" y1="-88.1124" x2="1378.93" y2="1191.33" gradientUnits="userSpaceOnUse">
<stop stop-color="#FF52C1"/>
<stop offset="0.0408966" stop-color="#F952C5"/>
<stop offset="1" stop-color="#9952FF" stop-opacity="0.01"/>
</linearGradient>
<linearGradient id="paint1_linear_48_14" x1="2909.48" y1="977.637" x2="2505.24" y2="-375.112" gradientUnits="userSpaceOnUse">
<stop stop-color="#FF52C1"/>
<stop offset="0.0408966" stop-color="#F952C5"/>
<stop offset="1" stop-color="#9952FF" stop-opacity="0.01"/>
</linearGradient>
<linearGradient id="paint2_linear_48_14" x1="835.109" y1="561.246" x2="712.93" y2="398.031" gradientUnits="userSpaceOnUse">
<stop stop-color="#FF52C1"/>
<stop offset="1" stop-color="#9952FF"/>
</linearGradient>
<linearGradient id="paint3_linear_48_14" x1="-18.4664" y1="25.4881" x2="28.7068" y2="78.8937" gradientUnits="userSpaceOnUse">
<stop stop-color="#FF52C1"/>
<stop offset="1" stop-color="#9952FF"/>
</linearGradient>
<linearGradient id="paint4_linear_48_14" x1="-27.2137" y1="37.5614" x2="42.3048" y2="116.264" gradientUnits="userSpaceOnUse">
<stop stop-color="#FF52C1"/>
<stop offset="1" stop-color="#9952FF"/>
</linearGradient>
<linearGradient id="paint5_linear_48_14" x1="-15.5507" y1="21.4637" x2="24.1742" y2="66.4368" gradientUnits="userSpaceOnUse">
<stop stop-color="#FF52C1"/>
<stop offset="1" stop-color="#9952FF"/>
</linearGradient>
<linearGradient id="paint6_linear_48_14" x1="-15.5507" y1="21.4637" x2="24.1742" y2="66.4368" gradientUnits="userSpaceOnUse">
<stop stop-color="#FF52C1"/>
<stop offset="1" stop-color="#9952FF"/>
</linearGradient>
<linearGradient id="paint7_linear_48_14" x1="65.9485" y1="696.169" x2="52.6776" y2="773.385" gradientUnits="userSpaceOnUse">
<stop stop-color="#FF52C1"/>
<stop offset="1" stop-color="#9952FF"/>
</linearGradient>
<linearGradient id="paint8_linear_48_14" x1="-8.2613" y1="11.4026" x2="12.8425" y2="35.2945" gradientUnits="userSpaceOnUse">
<stop stop-color="#FF52C1"/>
<stop offset="1" stop-color="#9952FF"/>
</linearGradient>
</defs>
</svg>
