<svg fill="currentColor" viewBox="0 0 405 800" xmlns="http://www.w3.org/2000/svg">
    <g transform="matrix(2.58065,0,0,2.58065,-197.943,0)">
        <path d="M81.703,165.106L115.684,165.106L115.684,305C115.684,307.762 117.922,310 120.684,310L178.3,310C181.062,310 183.3,307.762 183.3,305L183.3,165.765L222.364,165.765C224.904,165.765 227.041,163.859 227.331,161.336L233.264,109.834C233.427,108.417 232.978,106.998 232.03,105.935C231.081,104.871 229.723,104.262 228.298,104.262L183.302,104.262L183.302,71.978C183.302,62.246 188.542,57.311 198.878,57.311L228.298,57.311C231.06,57.311 233.298,55.072 233.298,52.311L233.298,5.037C233.298,2.275 231.06,0.037 228.298,0.037L187.753,0.037C187.467,0.023 186.832,0 185.896,0C178.861,0 154.408,1.381 135.092,19.151C113.69,38.843 116.665,62.421 117.376,66.509L117.376,104.261L81.703,104.261C78.941,104.261 76.703,106.499 76.703,109.261L76.703,160.105C76.703,162.867 78.941,165.106 81.703,165.106Z"/>
    </g>
</svg>
