<svg viewBox="0 0 375 372" fill="currentColor" xmlns="http://www.w3.org/2000/svg">
<path fill-rule="evenodd" clip-rule="evenodd" d="M0 265.181L319.689 0L375 0V73.4635L0 313.051V265.181Z" fill="url(#paint0_linear_56_15)"/>
<path fill-rule="evenodd" clip-rule="evenodd" d="M375 318.065L3.05176e-05 101.801V220.744L375 359.525V318.065Z" fill="url(#paint1_linear_56_15)"/>
<rect opacity="0.558175" width="27.9727" height="27.9727" rx="3" transform="matrix(0.707798 0.706415 -0.707798 0.706415 332.799 160.686)" fill="url(#paint2_linear_56_15)"/>
<rect opacity="0.386928" width="8.99122" height="8.99122" rx="1" transform="matrix(0.707798 0.706415 -0.707798 0.706415 122.364 359.297)" fill="url(#paint3_linear_56_15)"/>
<rect opacity="0.386928" width="17.9824" height="17.9824" rx="1" transform="matrix(0.707798 0.706415 -0.707798 0.706415 164.728 331.352)" fill="url(#paint4_linear_56_15)"/>
<rect opacity="0.386928" width="13.9863" height="13.9863" rx="1" transform="matrix(0.707798 0.706415 -0.707798 0.706415 139.728 76.8496)" fill="url(#paint5_linear_56_15)"/>
<rect opacity="0.386928" width="16.9834" height="16.9834" rx="1" transform="matrix(0.707798 0.706415 -0.707798 0.706415 325.021 331.352)" fill="url(#paint6_linear_56_15)"/>
<rect opacity="0.503418" width="41.959" height="41.959" rx="3" transform="matrix(0.707798 0.706415 -0.707798 0.706415 63.5979 252.305)" fill="url(#paint7_linear_56_15)"/>
<defs>
<linearGradient id="paint0_linear_56_15" x1="430.85" y1="-677.623" x2="-276.053" y2="117.301" gradientUnits="userSpaceOnUse">
<stop stop-color="#FF52C1"/>
<stop offset="0.0730022" stop-color="#F952C5"/>
<stop offset="1" stop-color="#9952FF" stop-opacity="0.01"/>
</linearGradient>
<linearGradient id="paint1_linear_56_15" x1="-14.5779" y1="-453.045" x2="510.08" y2="306.287" gradientUnits="userSpaceOnUse">
<stop stop-color="#FF52C1"/>
<stop stop-color="#F952C5"/>
<stop offset="1" stop-color="#9952FF" stop-opacity="0.01"/>
</linearGradient>
<linearGradient id="paint2_linear_56_15" x1="-13.5979" y1="18.7684" x2="21.1385" y2="58.094" gradientUnits="userSpaceOnUse">
<stop stop-color="#FF52C1"/>
<stop offset="1" stop-color="#9952FF"/>
</linearGradient>
<linearGradient id="paint3_linear_56_15" x1="-4.37076" y1="6.03269" x2="6.79451" y2="18.6731" gradientUnits="userSpaceOnUse">
<stop stop-color="#FF52C1"/>
<stop offset="1" stop-color="#9952FF"/>
</linearGradient>
<linearGradient id="paint4_linear_56_15" x1="-8.74151" y1="12.0654" x2="13.589" y2="37.3461" gradientUnits="userSpaceOnUse">
<stop stop-color="#FF52C1"/>
<stop offset="1" stop-color="#9952FF"/>
</linearGradient>
<linearGradient id="paint5_linear_56_15" x1="-6.79895" y1="9.38419" x2="10.5692" y2="29.047" gradientUnits="userSpaceOnUse">
<stop stop-color="#FF52C1"/>
<stop offset="1" stop-color="#9952FF"/>
</linearGradient>
<linearGradient id="paint6_linear_56_15" x1="-8.25587" y1="11.3951" x2="12.8341" y2="35.2713" gradientUnits="userSpaceOnUse">
<stop stop-color="#FF52C1"/>
<stop offset="1" stop-color="#9952FF"/>
</linearGradient>
<linearGradient id="paint7_linear_56_15" x1="-20.3969" y1="28.1526" x2="31.7077" y2="87.1409" gradientUnits="userSpaceOnUse">
<stop stop-color="#FF52C1"/>
<stop offset="1" stop-color="#9952FF"/>
</linearGradient>
</defs>
</svg>
