<svg viewBox="0 0 220 351" fill="none" xmlns="http://www.w3.org/2000/svg">
    <path d="M1 37H220V339.31C220 345.766 214.766 351 208.31 351H12.69C6.23379 351 1 345.766 1 339.31V37Z" fill="white"/>
    <path fill-rule="evenodd" clip-rule="evenodd" d="M0.787415 12.1136C0.787415 5.65662 6.02181 0.422241 12.4788 0.422241H208.309C214.766 0.422241 220 5.65663 220 12.1136V37.8172H0.787415V12.1136Z" fill="#00252E"/>
    <rect x="22.8" y="13.2767" width="71.2441" height="14.0231" rx="2.92283" fill="#E1E8EE"/>
    <rect x="177.911" y="14.4453" width="18.7061" height="2.33719" rx="1.16859" fill="#D8D8D8"/>
    <rect x="177.911" y="19.1197" width="18.7061" height="2.33719" rx="1.16859" fill="#D8D8D8"/>
    <rect x="177.911" y="23.7941" width="18.7061" height="2.33719" rx="1.16859" fill="#D8D8D8"/>
    <ellipse cx="32.9843" cy="84.6431" rx="10.2756" ry="10.2708" fill="url(#paint0_linear_69_138)"/>
    <rect x="54.2205" y="76.4264" width="39.3898" height="3.65185" rx="0.62997" fill="#E1E8EE"/>
    <rect x="54.2205" y="83.7301" width="137.008" height="1.82593" rx="0.62997" fill="#E1E8EE"/>
    <rect x="54.2205" y="87.382" width="125.591" height="1.82593" rx="0.62997" fill="#E1E8EE"/>
    <rect x="54.2205" y="91.0338" width="114.173" height="1.82593" rx="0.62997" fill="#E1E8EE"/>
    <ellipse cx="32.9843" cy="179.135" rx="10.2756" ry="10.2708" fill="url(#paint1_linear_69_138)"/>
    <rect x="54.2205" y="170.918" width="39.3898" height="3.65185" rx="0.62997" fill="#E1E8EE"/>
    <rect x="54.2205" y="178.222" width="137.008" height="1.82593" rx="0.62997" fill="#E1E8EE"/>
    <rect x="54.2205" y="181.874" width="125.591" height="1.82593" rx="0.62997" fill="#E1E8EE"/>
    <rect x="54.2205" y="185.526" width="114.173" height="1.82593" rx="0.62997" fill="#E1E8EE"/>
    <rect x="54.2205" y="107.924" width="39.3898" height="3.65185" rx="0.62997" fill="#E1E8EE"/>
    <rect x="54.2205" y="115.227" width="137.008" height="1.82593" rx="0.62997" fill="#E1E8EE"/>
    <rect x="54.2205" y="118.879" width="125.591" height="1.82593" rx="0.62997" fill="#E1E8EE"/>
    <rect x="54.2205" y="122.531" width="114.173" height="1.82593" rx="0.62997" fill="#E1E8EE"/>
    <ellipse cx="32.9843" cy="116.14" rx="10.2756" ry="10.2708" fill="url(#paint2_linear_69_138)"/>
    <rect x="54.2205" y="202.415" width="39.3898" height="3.65185" rx="0.62997" fill="#E1E8EE"/>
    <rect x="54.2205" y="209.719" width="137.008" height="1.82593" rx="0.62997" fill="#E1E8EE"/>
    <rect x="54.2205" y="213.371" width="125.591" height="1.82593" rx="0.62997" fill="#E1E8EE"/>
    <rect x="54.2205" y="217.023" width="114.173" height="1.82593" rx="0.62997" fill="#E1E8EE"/>
    <ellipse cx="32.9843" cy="210.632" rx="10.2756" ry="10.2708" fill="url(#paint3_linear_69_138)"/>
    <rect x="54.2205" y="139.421" width="39.3898" height="3.65185" rx="0.62997" fill="#E1E8EE"/>
    <rect x="54.2205" y="146.724" width="137.008" height="1.82593" rx="0.62997" fill="#E1E8EE"/>
    <rect x="54.2205" y="150.376" width="125.591" height="1.82593" rx="0.62997" fill="#E1E8EE"/>
    <rect x="54.2205" y="154.028" width="114.173" height="1.82593" rx="0.62997" fill="#E1E8EE"/>
    <ellipse cx="32.9843" cy="147.638" rx="10.2756" ry="10.2708" fill="url(#paint4_linear_69_138)"/>
    <rect x="54.2205" y="233.913" width="39.3898" height="3.65185" rx="0.62997" fill="#E1E8EE"/>
    <rect x="54.2205" y="241.216" width="137.008" height="1.82593" rx="0.62997" fill="#E1E8EE"/>
    <rect x="54.2205" y="244.868" width="125.591" height="1.82593" rx="0.62997" fill="#E1E8EE"/>
    <rect x="54.2205" y="248.52" width="114.173" height="1.82593" rx="0.62997" fill="#E1E8EE"/>
    <ellipse cx="32.9843" cy="242.129" rx="10.2756" ry="10.2708" fill="url(#paint5_linear_69_138)"/>
    <ellipse cx="32.9843" cy="273.626" rx="10.2756" ry="10.2708" fill="url(#paint6_linear_69_138)"/>
    <rect x="54.2205" y="265.41" width="39.3898" height="3.65185" rx="0.62997" fill="#E1E8EE"/>
    <rect x="54.2205" y="272.714" width="137.008" height="1.82593" rx="0.62997" fill="#E1E8EE"/>
    <rect x="54.2205" y="276.365" width="125.591" height="1.82593" rx="0.62997" fill="#E1E8EE"/>
    <rect x="54.2205" y="280.017" width="114.173" height="1.82593" rx="0.62997" fill="#E1E8EE"/>
    <rect x="54.2205" y="296.907" width="39.3898" height="3.65185" rx="0.62997" fill="#E1E8EE"/>
    <rect x="54.2205" y="304.211" width="137.008" height="1.82593" rx="0.62997" fill="#E1E8EE"/>
    <rect x="54.2205" y="307.863" width="125.591" height="1.82593" rx="0.62997" fill="#E1E8EE"/>
    <rect x="54.2205" y="311.514" width="114.173" height="1.82593" rx="0.62997" fill="#E1E8EE"/>
    <ellipse cx="32.9843" cy="305.124" rx="10.2756" ry="10.2708" fill="url(#paint7_linear_69_138)"/>
    <defs>
        <linearGradient id="paint0_linear_69_138" x1="11.1851" y1="76.063" x2="23.7494" y2="105.189" gradientUnits="userSpaceOnUse">
            <stop stop-color="#FAD961"/>
            <stop offset="1" stop-color="#FF52C1"/>
        </linearGradient>
        <linearGradient id="paint1_linear_69_138" x1="11.1851" y1="170.555" x2="23.7494" y2="199.68" gradientUnits="userSpaceOnUse">
            <stop stop-color="#FAD961"/>
            <stop offset="1" stop-color="#FF52C1"/>
        </linearGradient>
        <linearGradient id="paint2_linear_69_138" x1="22.7087" y1="105.869" x2="22.7087" y2="126.411" gradientUnits="userSpaceOnUse">
            <stop stop-color="#00C7FA"/>
            <stop offset="1" stop-color="#007DFA"/>
        </linearGradient>
        <linearGradient id="paint3_linear_69_138" x1="22.7087" y1="200.361" x2="22.7087" y2="220.903" gradientUnits="userSpaceOnUse">
            <stop stop-color="#00C7FA"/>
            <stop offset="1" stop-color="#007DFA"/>
        </linearGradient>
        <linearGradient id="paint4_linear_69_138" x1="17.232" y1="143.655" x2="29.806" y2="166.511" gradientUnits="userSpaceOnUse">
            <stop stop-color="#FF52C1"/>
            <stop offset="1" stop-color="#9952FF"/>
        </linearGradient>
        <linearGradient id="paint5_linear_69_138" x1="17.232" y1="238.147" x2="29.806" y2="261.003" gradientUnits="userSpaceOnUse">
            <stop stop-color="#FF52C1"/>
            <stop offset="1" stop-color="#9952FF"/>
        </linearGradient>
        <linearGradient id="paint6_linear_69_138" x1="11.1851" y1="265.046" x2="23.7494" y2="294.172" gradientUnits="userSpaceOnUse">
            <stop stop-color="#FAD961"/>
            <stop offset="1" stop-color="#FF52C1"/>
        </linearGradient>
        <linearGradient id="paint7_linear_69_138" x1="22.7087" y1="294.853" x2="22.7087" y2="315.394" gradientUnits="userSpaceOnUse">
            <stop stop-color="#00C7FA"/>
            <stop offset="1" stop-color="#007DFA"/>
        </linearGradient>
    </defs>
</svg>
